<?xml version="1.0" encoding="UTF-8" standalone="yes"?>
<!DOCTYPE svg PUBLIC "-//W3C//DTD SVG 1.1//EN" "http://www.w3.org/Graphics/SVG/1.1/DTD/svg11.dtd">

<svg width="1406" height="448" viewBox="0 0 1406 448" xmlns="http://www.w3.org/2000/svg" xmlns:xlink="http://www.w3.org/1999/xlink" version="1.1" baseProfile="full">
    <defs>
        <radialGradient id="15526688-1041466224" cx="443" cy="13" r="444" fx="443" fy="13" gradientUnits="userSpaceOnUse">
            <stop offset="0%" style="stop-color:#565604;stop-opacity:1.000000"></stop>
            <stop offset="100%" style="stop-color:#131301;stop-opacity:1.000000"></stop>
        </radialGradient>
        <radialGradient id="15517968-963023904" cx="443" cy="42" r="444" fx="443" fy="42" gradientUnits="userSpaceOnUse">
            <stop offset="0%" style="stop-color:#45702e;stop-opacity:1.000000"></stop>
            <stop offset="100%" style="stop-color:#0f190a;stop-opacity:1.000000"></stop>
        </radialGradient>
        <radialGradient id="15487360-963609936" cx="41" cy="63" r="64" fx="41" fy="63" gradientUnits="userSpaceOnUse">
            <stop offset="0%" style="stop-color:#45702e;stop-opacity:1.000000"></stop>
            <stop offset="100%" style="stop-color:#0f190a;stop-opacity:1.000000"></stop>
        </radialGradient>
        <radialGradient id="15487680-963081888" cx="41" cy="63" r="64" fx="41" fy="63" gradientUnits="userSpaceOnUse">
            <stop offset="0%" style="stop-color:#45702e;stop-opacity:1.000000"></stop>
            <stop offset="100%" style="stop-color:#0f190a;stop-opacity:1.000000"></stop>
        </radialGradient>
    </defs>
    <g transform="scale(1.000000,-1.000000) translate(0,-448)">
        <path d="M 881.159625 1.025800 L 881.656025 1.101500 L 882.135225 1.224700 L 882.594625 1.392900 L 883.031725 1.603400 L 883.443925 1.853900 L 883.828825 2.141700 L 884.183925 2.464400 L 884.506625 2.819500 L 884.794425 3.204400 L 885.044925 3.616700 L 885.255425 4.053700 L 885.423625 4.513100 L 885.546825 4.992300 L 885.622525 5.488700 L 885.648425 6.000000 L 885.648425 21.927700 L 885.622525 22.438900 L 885.546825 22.935400 L 885.423625 23.414500 L 885.255425 23.873900 L 885.044925 24.311000 L 884.794425 24.723200 L 884.506625 25.108100 L 884.183925 25.463200 L 883.828825 25.785900 L 883.443925 26.073800 L 883.031725 26.324200 L 882.594625 26.534800 L 882.135225 26.702900 L 881.656025 26.826100 L 881.159625 26.901900 L 880.648425 26.927700 L 5.999925 26.927700 L 5.488725 26.901900 L 4.992325 26.826100 L 4.513125 26.702900 L 4.053725 26.534800 L 3.616625 26.324200 L 3.204425 26.073800 L 2.819525 25.785900 L 2.464425 25.463200 L 2.141725 25.108100 L 1.853825 24.723200 L 1.603425 24.311000 L 1.392825 23.873900 L 1.224725 23.414500 L 1.101525 22.935400 L 1.025725 22.438900 L 0.999925 21.927700 L 0.999925 6.000000 L 1.025725 5.488700 L 1.101525 4.992300 L 1.224725 4.513100 L 1.392825 4.053700 L 1.603425 3.616700 L 1.853825 3.204400 L 2.141725 2.819500 L 2.464425 2.464400 L 2.819525 2.141700 L 3.204425 1.853900 L 3.616625 1.603400 L 4.053725 1.392900 L 4.513125 1.224700 L 4.992325 1.101500 L 5.488725 1.025800 L 5.999925 1.000000 L 880.648425 1.000000 Z M 298.243125 2.004800 L 297.358825 2.043200 L 296.529125 2.120100 L 295.754025 2.235500 L 295.387025 2.307500 L 295.033825 2.391500 L 294.370125 2.602000 L 293.763025 2.869100 L 293.212625 3.192900 L 292.958625 3.376000 L 292.719025 3.573600 L 292.283925 4.012700 L 291.907525 4.510600 L 291.589825 5.067100 L 291.453025 5.367300 L 291.331625 5.684000 L 291.137325 6.372100 L 291.007825 7.133000 L 290.943025 7.966700 L 290.934925 8.410900 L 290.934925 9.220400 L 296.763125 9.220400 L 296.763125 8.669900 L 296.771725 8.311500 L 296.840525 7.678100 L 296.978125 7.156000 L 297.184525 6.745200 L 297.313525 6.581500 L 297.456225 6.441100 L 297.771925 6.216500 L 298.128025 6.066700 L 298.524725 5.991900 L 298.738125 5.982500 L 298.966125 5.992600 L 299.380925 6.073600 L 299.741125 6.235500 L 300.046725 6.478300 L 300.179025 6.630100 L 300.296625 6.796500 L 300.484825 7.156700 L 300.610325 7.553400 L 300.673025 7.986400 L 300.680925 8.216600 L 300.670025 8.492600 L 300.583025 9.000500 L 300.408925 9.449800 L 300.147925 9.840400 L 299.984725 10.013600 L 299.805125 10.176500 L 299.412525 10.484100 L 298.975425 10.767400 L 298.493825 11.026500 L 298.236325 11.146900 L 297.699025 11.382600 L 296.557725 11.860200 L 295.953625 12.102100 L 295.648825 12.228000 L 295.055925 12.507300 L 294.485225 12.823000 L 293.936825 13.175100 L 293.670925 13.364800 L 293.413425 13.566700 L 292.931825 14.015900 L 292.494725 14.525900 L 292.102125 15.096600 L 291.922525 15.404700 L 291.759325 15.732500 L 291.498325 16.461000 L 291.324225 17.286700 L 291.237225 18.209500 L 291.226325 18.707300 L 291.233725 19.141900 L 291.292425 19.971600 L 291.409725 20.748600 L 291.585825 21.473100 L 291.820525 22.145000 L 292.114025 22.764200 L 292.466125 23.330800 L 292.876925 23.844800 L 293.104325 24.082100 L 293.346625 24.305600 L 293.876825 24.709300 L 294.467725 25.055400 L 295.119325 25.343700 L 295.831725 25.574400 L 296.604725 25.747500 L 297.438525 25.862800 L 298.332925 25.920500 L 298.802925 25.927700 L 299.288125 25.921000 L 300.207425 25.867900 L 301.058325 25.761700 L 301.841025 25.602300 L 302.555325 25.389800 L 303.201425 25.124200 L 303.779125 24.805500 L 304.288625 24.433700 L 304.517725 24.227800 L 304.731425 24.007400 L 305.117425 23.519200 L 305.448325 22.967800 L 305.724025 22.353100 L 305.944625 21.675200 L 306.110025 20.934000 L 306.220325 20.129600 L 306.275525 19.261900 L 306.282325 18.804400 L 300.648525 18.804400 L 300.648525 19.354800 L 300.641925 19.609100 L 300.589325 20.088700 L 300.484125 20.529800 L 300.326225 20.932500 L 300.227625 21.119500 L 300.115225 21.290200 L 299.848125 21.563400 L 299.524325 21.745500 L 299.143925 21.836600 L 298.932425 21.848000 L 298.697725 21.838100 L 298.276825 21.759200 L 297.920625 21.601400 L 297.629225 21.364600 L 297.507825 21.216600 L 297.401525 21.056500 L 297.231525 20.722600 L 297.118225 20.370500 L 297.061525 20.000100 L 297.054525 19.808100 L 297.065825 19.532200 L 297.156925 19.024200 L 297.339025 18.575000 L 297.612225 18.184400 L 297.783025 18.011100 L 297.970925 17.848000 L 298.381725 17.538400 L 298.839125 17.251000 L 299.343025 16.985900 L 299.612425 16.861700 L 300.172925 16.617800 L 301.354725 16.124100 L 301.976025 15.874200 L 302.289225 15.743900 L 302.900325 15.454500 L 303.491225 15.126700 L 304.061925 14.760400 L 304.339625 14.562800 L 304.609025 14.352600 L 305.112925 13.885100 L 305.570325 13.354900 L 305.981125 12.762000 L 306.169025 12.442000 L 306.339825 12.101800 L 306.613025 11.347000 L 306.795125 10.493000 L 306.886225 9.539800 L 306.897525 9.026100 L 306.889325 8.572600 L 306.823525 7.713100 L 306.692025 6.916700 L 306.494725 6.183700 L 306.231625 5.513800 L 305.902825 4.907300 L 305.508225 4.363900 L 305.047825 3.883800 L 304.792925 3.667400 L 304.522525 3.465500 L 303.937725 3.100800 L 303.294225 2.788100 L 302.592025 2.527600 L 301.831125 2.319100 L 301.011525 2.162800 L 300.133225 2.058600 L 299.196325 2.006500 L 298.705825 2.000000 Z M 437.761925 2.004800 L 436.877525 2.043200 L 436.047825 2.120100 L 435.272825 2.235500 L 434.905725 2.307500 L 434.552625 2.391500 L 433.888825 2.602000 L 433.281725 2.869100 L 432.731325 3.192900 L 432.477325 3.376000 L 432.237825 3.573600 L 431.802725 4.012700 L 431.426325 4.510600 L 431.108625 5.067100 L 430.971725 5.367300 L 430.850325 5.684000 L 430.656025 6.372100 L 430.526525 7.133000 L 430.461825 7.966700 L 430.453725 8.410900 L 430.453725 9.220400 L 436.281825 9.220400 L 436.281825 8.669900 L 436.290425 8.311500 L 436.359225 7.678100 L 436.496825 7.156000 L 436.703225 6.745200 L 436.832225 6.581500 L 436.974925 6.441100 L 437.290625 6.216500 L 437.646825 6.066700 L 438.043425 5.991900 L 438.256925 5.982500 L 438.484825 5.992600 L 438.899725 6.073600 L 439.259925 6.235500 L 439.565525 6.478300 L 439.697725 6.630100 L 439.815425 6.796500 L 440.003625 7.156700 L 440.129025 7.553400 L 440.191825 7.986400 L 440.199625 8.216600 L 440.188725 8.492600 L 440.101725 9.000500 L 439.927725 9.449800 L 439.666625 9.840400 L 439.503525 10.013600 L 439.323925 10.176500 L 438.931325 10.484100 L 438.494225 10.767400 L 438.012525 11.026500 L 437.755025 11.146900 L 437.217825 11.382600 L 436.076425 11.860200 L 435.472325 12.102100 L 435.167525 12.228000 L 434.574625 12.507300 L 434.003925 12.823000 L 433.455525 13.175100 L 433.189725 13.364800 L 432.932225 13.566700 L 432.450525 14.015900 L 432.013425 14.525900 L 431.620825 15.096600 L 431.441225 15.404700 L 431.278125 15.732500 L 431.017025 16.461000 L 430.843025 17.286700 L 430.756025 18.209500 L 430.745125 18.707300 L 430.752425 19.141900 L 430.811125 19.971600 L 430.928525 20.748600 L 431.104525 21.473100 L 431.339325 22.145000 L 431.632725 22.764200 L 431.984825 23.330800 L 432.395625 23.844800 L 432.623025 24.082100 L 432.865425 24.305600 L 433.395625 24.709300 L 433.986525 25.055400 L 434.638125 25.343700 L 435.350425 25.574400 L 436.123525 25.747500 L 436.957225 25.862800 L 437.851725 25.920500 L 438.321725 25.927700 L 438.806925 25.921000 L 439.726125 25.867900 L 440.577125 25.761700 L 441.359725 25.602300 L 442.074125 25.389800 L 442.720125 25.124200 L 443.297925 24.805500 L 443.807425 24.433700 L 444.036525 24.227800 L 444.250225 24.007400 L 444.636225 23.519200 L 444.967025 22.967800 L 445.242825 22.353100 L 445.463325 21.675200 L 445.628825 20.934000 L 445.739125 20.129600 L 445.794225 19.261900 L 445.801125 18.804400 L 440.167225 18.804400 L 440.167225 19.354800 L 440.160725 19.609100 L 440.108025 20.088700 L 440.002825 20.529800 L 439.845025 20.932500 L 439.746325 21.119500 L 439.634025 21.290200 L 439.366925 21.563400 L 439.043125 21.745500 L 438.662625 21.836600 L 438.451225 21.848000 L 438.216425 21.838100 L 437.795525 21.759200 L 437.439325 21.601400 L 437.147925 21.364600 L 437.026525 21.216600 L 436.920325 21.056500 L 436.750325 20.722600 L 436.637025 20.370500 L 436.580325 20.000100 L 436.573225 19.808100 L 436.584625 19.532200 L 436.675725 19.024200 L 436.857825 18.575000 L 437.131025 18.184400 L 437.301725 18.011100 L 437.489725 17.848000 L 437.900525 17.538400 L 438.357825 17.251000 L 438.861725 16.985900 L 439.131125 16.861700 L 439.691725 16.617800 L 440.873525 16.124100 L 441.494825 15.874200 L 441.807925 15.743900 L 442.419125 15.454500 L 443.010025 15.126700 L 443.580625 14.760400 L 443.858425 14.562800 L 444.127825 14.352600 L 444.631725 13.885100 L 445.089025 13.354900 L 445.499825 12.762000 L 445.687825 12.442000 L 445.858525 12.101800 L 446.131725 11.347000 L 446.313825 10.493000 L 446.404925 9.539800 L 446.416325 9.026100 L 446.408125 8.572600 L 446.342325 7.713100 L 446.210825 6.916700 L 446.013525 6.183700 L 445.750425 5.513800 L 445.421525 4.907300 L 445.026925 4.363900 L 444.566525 3.883800 L 444.311725 3.667400 L 444.041325 3.465500 L 443.456425 3.100800 L 442.812925 2.788100 L 442.110725 2.527600 L 441.349825 2.319100 L 440.530225 2.162800 L 439.652025 2.058600 L 438.715025 2.006500 L 438.224525 2.000000 Z M 476.207525 2.009600 L 475.147125 2.086500 L 474.175725 2.240300 L 473.293425 2.471000 L 472.885725 2.615100 L 472.689725 2.695300 L 472.312325 2.874900 L 471.954125 3.080300 L 471.615225 3.311500 L 471.295425 3.568500 L 470.994925 3.851300 L 470.713625 4.159900 L 470.451625 4.494300 L 470.327825 4.671200 L 470.208525 4.854600 L 469.982825 5.241100 L 469.774425 5.653900 L 469.583225 6.093100 L 469.409125 6.558500 L 469.252325 7.050200 L 469.112725 7.568300 L 468.990225 8.112700 L 468.935525 8.394700 L 468.836825 8.980300 L 468.679025 10.241000 L 468.573725 11.621200 L 468.521125 13.120700 L 468.514625 13.915200 L 468.521125 14.709800 L 468.573725 16.209300 L 468.679025 17.589500 L 468.836825 18.850200 L 468.935525 19.435800 L 468.990225 19.717800 L 469.112725 20.262200 L 469.252325 20.780300 L 469.409125 21.272000 L 469.583225 21.737400 L 469.774425 22.176600 L 469.982825 22.589400 L 470.208525 22.975900 L 470.327825 23.159300 L 470.451625 23.336400 L 470.713625 23.672300 L 470.994925 23.984000 L 471.295425 24.271300 L 471.615225 24.534400 L 471.954125 24.773200 L 472.312325 24.987700 L 472.689725 25.177900 L 472.885725 25.263900 L 473.293425 25.419500 L 474.175725 25.668400 L 475.147125 25.834300 L 476.207525 25.917300 L 476.771125 25.927700 L 477.334725 25.917300 L 478.395125 25.834300 L 479.366425 25.668400 L 480.248725 25.419500 L 480.656525 25.263900 L 480.852425 25.177900 L 481.229825 24.987700 L 481.588025 24.773200 L 481.927025 24.534400 L 482.246725 24.271300 L 482.547225 23.984000 L 482.828525 23.672300 L 483.090625 23.336400 L 483.214425 23.159300 L 483.333725 22.975900 L 483.559325 22.589400 L 483.767825 22.176600 L 483.959025 21.737400 L 484.133025 21.272000 L 484.289925 20.780300 L 484.429525 20.262200 L 484.551925 19.717800 L 484.606725 19.435800 L 484.705325 18.850200 L 484.863225 17.589500 L 484.968425 16.209300 L 485.021025 14.709800 L 485.027625 13.915200 L 485.021025 13.120700 L 484.968425 11.621200 L 484.863225 10.241000 L 484.705325 8.980300 L 484.606725 8.394700 L 484.551925 8.112700 L 484.429525 7.568300 L 484.289925 7.050200 L 484.133025 6.558500 L 483.959025 6.093100 L 483.767825 5.653900 L 483.559325 5.241100 L 483.333725 4.854600 L 483.214425 4.671200 L 483.090625 4.494300 L 482.828525 4.159900 L 482.547225 3.851300 L 482.246725 3.568500 L 481.927025 3.311500 L 481.588025 3.080300 L 481.229825 2.874900 L 480.852425 2.695300 L 480.656525 2.615100 L 480.248725 2.471000 L 479.366425 2.240300 L 478.395125 2.086500 L 477.334725 2.009600 L 476.771125 2.000000 Z M 542.895725 2.002900 L 542.351425 2.026700 L 541.837325 2.074300 L 541.353725 2.145600 L 540.900425 2.240700 L 540.477425 2.359600 L 540.084925 2.502300 L 539.722625 2.668700 L 539.552925 2.760800 L 539.231125 2.963000 L 538.648325 3.438500 L 538.146425 4.009200 L 537.725525 4.675000 L 537.545425 5.043500 L 537.383325 5.435100 L 537.106025 6.285000 L 536.891525 7.224000 L 536.739725 8.252000 L 536.687425 8.799400 L 536.645625 9.368100 L 536.578925 10.566100 L 536.534325 11.845000 L 536.512125 13.204900 L 536.509325 13.915200 L 536.514625 14.633100 L 536.557125 16.005200 L 536.642125 17.292200 L 536.769625 18.494300 L 536.849325 19.063400 L 536.894225 19.339900 L 536.998425 19.876200 L 537.121825 20.390200 L 537.264525 20.881900 L 537.426425 21.351400 L 537.607525 21.798700 L 537.807925 22.223600 L 538.027425 22.626300 L 538.144425 22.819300 L 538.266725 23.006700 L 538.528225 23.364400 L 538.812525 23.699300 L 539.119625 24.011500 L 539.449525 24.300900 L 539.802125 24.567500 L 540.177525 24.811300 L 540.575725 25.032400 L 540.783325 25.134400 L 540.997525 25.230500 L 541.448825 25.404000 L 541.930425 25.552700 L 542.442425 25.676700 L 542.984825 25.775800 L 543.557525 25.850200 L 544.160525 25.899800 L 544.793925 25.924600 L 545.122025 25.927700 L 545.514825 25.921100 L 546.277825 25.868500 L 547.010325 25.763300 L 547.712525 25.605400 L 548.052325 25.506800 L 548.382425 25.393400 L 549.007725 25.118200 L 549.586425 24.778200 L 550.118725 24.373500 L 550.367325 24.146900 L 550.603625 23.903800 L 551.036625 23.367500 L 551.417125 22.764500 L 551.744925 22.094600 L 551.889125 21.734700 L 552.018125 21.356500 L 552.224525 20.541000 L 552.362125 19.646500 L 552.430925 18.673100 L 552.439525 18.156800 L 546.611425 18.156800 L 546.606325 18.602500 L 546.565925 19.399900 L 546.484925 20.071700 L 546.363525 20.618100 L 546.287625 20.844300 L 546.195025 21.079500 L 545.940125 21.455900 L 545.592025 21.706800 L 545.150825 21.832300 L 544.895325 21.848000 L 544.714025 21.842400 L 544.380125 21.797900 L 544.084625 21.708900 L 543.827625 21.575300 L 543.713525 21.491800 L 543.607825 21.394200 L 543.417625 21.147300 L 543.255725 20.831600 L 543.122125 20.447100 L 543.066025 20.229100 L 543.015625 19.992500 L 542.928625 19.460300 L 542.859825 18.849200 L 542.809225 18.159100 L 542.790725 17.784500 L 542.762425 16.965900 L 542.730025 15.031300 L 542.726025 13.915200 L 542.730025 12.799200 L 542.762425 10.864600 L 542.790725 10.046000 L 542.809225 9.671400 L 542.859825 8.981300 L 542.928625 8.370200 L 543.015625 7.838000 L 543.066025 7.601400 L 543.121625 7.383400 L 543.251125 6.998900 L 543.404925 6.683200 L 543.583025 6.436300 L 543.681125 6.338700 L 543.786625 6.255200 L 544.023425 6.121600 L 544.294625 6.032600 L 544.600125 5.988100 L 544.765825 5.982500 L 545.001625 5.994700 L 545.430625 6.091800 L 545.623925 6.176800 L 545.803025 6.295200 L 546.118625 6.659400 L 546.255225 6.905300 L 546.377725 7.198700 L 546.580025 7.943400 L 546.660025 8.394700 L 546.694125 8.641800 L 546.748825 9.186200 L 546.785225 9.797400 L 546.803425 10.475300 L 546.805725 10.839300 L 544.668725 10.839300 L 544.668725 14.919000 L 552.439525 14.919000 L 552.439525 2.356100 L 548.359825 2.356100 L 548.230325 4.396000 L 548.165625 4.396000 L 548.088925 4.213800 L 547.912925 3.873900 L 547.706525 3.566300 L 547.469725 3.291000 L 547.339925 3.165600 L 547.064725 2.937900 L 546.465725 2.573700 L 546.141925 2.437100 L 545.804025 2.324700 L 545.091625 2.154800 L 544.717325 2.097100 L 544.335825 2.054600 L 543.566825 2.006000 L 543.179325 2.000000 Z M 582.554525 2.009600 L 581.494125 2.086500 L 580.522825 2.240300 L 579.640525 2.471000 L 579.232725 2.615100 L 579.036825 2.695300 L 578.659425 2.874900 L 578.301225 3.080300 L 577.962225 3.311500 L 577.642525 3.568500 L 577.342025 3.851300 L 577.060725 4.159900 L 576.798625 4.494300 L 576.674825 4.671200 L 576.555525 4.854600 L 576.329925 5.241100 L 576.121425 5.653900 L 575.930225 6.093100 L 575.756225 6.558500 L 575.599325 7.050200 L 575.459725 7.568300 L 575.337325 8.112700 L 575.282525 8.394700 L 575.183925 8.980300 L 575.026025 10.241000 L 574.920825 11.621200 L 574.868225 13.120700 L 574.861625 13.915200 L 574.868225 14.709800 L 574.920825 16.209300 L 575.026025 17.589500 L 575.183925 18.850200 L 575.282525 19.435800 L 575.337325 19.717800 L 575.459725 20.262200 L 575.599325 20.780300 L 575.756225 21.272000 L 575.930225 21.737400 L 576.121425 22.176600 L 576.329925 22.589400 L 576.555525 22.975900 L 576.674825 23.159300 L 576.798625 23.336400 L 577.060725 23.672300 L 577.342025 23.984000 L 577.642525 24.271300 L 577.962225 24.534400 L 578.301225 24.773200 L 578.659425 24.987700 L 579.036825 25.177900 L 579.232725 25.263900 L 579.640525 25.419500 L 580.522825 25.668400 L 581.494125 25.834300 L 582.554525 25.917300 L 583.118125 25.927700 L 583.681725 25.917300 L 584.742125 25.834300 L 585.713525 25.668400 L 586.595825 25.419500 L 587.003525 25.263900 L 587.199525 25.177900 L 587.576925 24.987700 L 587.935125 24.773200 L 588.274025 24.534400 L 588.593825 24.271300 L 588.894325 23.984000 L 589.175625 23.672300 L 589.437625 23.336400 L 589.561425 23.159300 L 589.680725 22.975900 L 589.906425 22.589400 L 590.114825 22.176600 L 590.306025 21.737400 L 590.480125 21.272000 L 590.636925 20.780300 L 590.776525 20.262200 L 590.899025 19.717800 L 590.953725 19.435800 L 591.052425 18.850200 L 591.210225 17.589500 L 591.315425 16.209300 L 591.368125 14.709800 L 591.374625 13.915200 L 591.368125 13.120700 L 591.315425 11.621200 L 591.210225 10.241000 L 591.052425 8.980300 L 590.953725 8.394700 L 590.899025 8.112700 L 590.776525 7.568300 L 590.636925 7.050200 L 590.480125 6.558500 L 590.306025 6.093100 L 590.114825 5.653900 L 589.906425 5.241100 L 589.680725 4.854600 L 589.561425 4.671200 L 589.437625 4.494300 L 589.175625 4.159900 L 588.894325 3.851300 L 588.593825 3.568500 L 588.274025 3.311500 L 587.935125 3.080300 L 587.576925 2.874900 L 587.199525 2.695300 L 587.003525 2.615100 L 586.595825 2.471000 L 585.713525 2.240300 L 584.742125 2.086500 L 583.681725 2.009600 L 583.118125 2.000000 Z M 621.198225 2.009600 L 620.137825 2.086500 L 619.166525 2.240300 L 618.284225 2.471000 L 617.876425 2.615100 L 617.680525 2.695300 L 617.303125 2.874900 L 616.944925 3.080300 L 616.605925 3.311500 L 616.286225 3.568500 L 615.985725 3.851300 L 615.704425 4.159900 L 615.442325 4.494300 L 615.318525 4.671200 L 615.199225 4.854600 L 614.973625 5.241100 L 614.765125 5.653900 L 614.573925 6.093100 L 614.399925 6.558500 L 614.243025 7.050200 L 614.103425 7.568300 L 613.981025 8.112700 L 613.926225 8.394700 L 613.827625 8.980300 L 613.669725 10.241000 L 613.564525 11.621200 L 613.511925 13.120700 L 613.505325 13.915200 L 613.511925 14.709800 L 613.564525 16.209300 L 613.669725 17.589500 L 613.827625 18.850200 L 613.926225 19.435800 L 613.981025 19.717800 L 614.103425 20.262200 L 614.243025 20.780300 L 614.399925 21.272000 L 614.573925 21.737400 L 614.765125 22.176600 L 614.973625 22.589400 L 615.199225 22.975900 L 615.318525 23.159300 L 615.442325 23.336400 L 615.704425 23.672300 L 615.985725 23.984000 L 616.286225 24.271300 L 616.605925 24.534400 L 616.944925 24.773200 L 617.303125 24.987700 L 617.680525 25.177900 L 617.876425 25.263900 L 618.284225 25.419500 L 619.166525 25.668400 L 620.137825 25.834300 L 621.198225 25.917300 L 621.761825 25.927700 L 622.325425 25.917300 L 623.385825 25.834300 L 624.357125 25.668400 L 625.239525 25.419500 L 625.647225 25.263900 L 625.843125 25.177900 L 626.220625 24.987700 L 626.578725 24.773200 L 626.917725 24.534400 L 627.237425 24.271300 L 627.538025 23.984000 L 627.819225 23.672300 L 628.081325 23.336400 L 628.205125 23.159300 L 628.324425 22.975900 L 628.550025 22.589400 L 628.758525 22.176600 L 628.949725 21.737400 L 629.123725 21.272000 L 629.280625 20.780300 L 629.420225 20.262200 L 629.542625 19.717800 L 629.597425 19.435800 L 629.696125 18.850200 L 629.853925 17.589500 L 629.959125 16.209300 L 630.011825 14.709800 L 630.018325 13.915200 L 630.011825 13.120700 L 629.959125 11.621200 L 629.853925 10.241000 L 629.696125 8.980300 L 629.597425 8.394700 L 629.542625 8.112700 L 629.420225 7.568300 L 629.280625 7.050200 L 629.123725 6.558500 L 628.949725 6.093100 L 628.758525 5.653900 L 628.550025 5.241100 L 628.324425 4.854600 L 628.205125 4.671200 L 628.081325 4.494300 L 627.819225 4.159900 L 627.538025 3.851300 L 627.237425 3.568500 L 626.917725 3.311500 L 626.578725 3.080300 L 626.220625 2.874900 L 625.843125 2.695300 L 625.647225 2.615100 L 625.239525 2.471000 L 624.357125 2.240300 L 623.385825 2.086500 L 622.325425 2.009600 L 621.761825 2.000000 Z M 222.227825 2.356100 L 222.227825 20.358600 L 217.759625 20.358600 L 217.759625 25.474400 L 232.783325 25.474400 L 232.783325 20.358600 L 228.250325 20.358600 L 228.250325 2.356100 Z M 251.255125 2.356100 L 256.791825 25.474400 L 264.368425 25.474400 L 270.002325 2.356100 L 263.591325 2.356100 L 262.976125 6.403400 L 258.184125 6.403400 L 257.568925 2.356100 Z M 332.719325 2.356100 L 332.719325 20.358600 L 328.251125 20.358600 L 328.251125 25.474400 L 343.274725 25.474400 L 343.274725 20.358600 L 338.741725 20.358600 L 338.741725 2.356100 Z M 365.275925 2.356100 L 365.275925 25.474400 L 378.972025 25.474400 L 378.972025 20.552800 L 371.298325 20.552800 L 371.298325 16.602700 L 378.486325 16.602700 L 378.486325 11.875400 L 371.298325 11.875400 L 371.298325 7.277700 L 379.263425 7.277700 L 379.263425 2.356100 Z M 652.828925 2.356100 L 652.828925 25.474400 L 661.571125 25.474400 L 661.894425 25.470700 L 662.513625 25.440800 L 663.096525 25.381100 L 663.642825 25.291600 L 664.152825 25.172200 L 664.626325 25.022900 L 665.063525 24.843800 L 665.464125 24.634900 L 665.650825 24.519200 L 665.830125 24.397300 L 666.171625 24.138300 L 666.490325 23.859000 L 666.786325 23.559500 L 667.059525 23.239800 L 667.309925 22.899800 L 667.537625 22.539600 L 667.742525 22.159100 L 667.836425 21.961300 L 668.009625 21.553000 L 668.303125 20.691000 L 668.525725 19.768200 L 668.677525 18.784700 L 668.726825 18.270200 L 668.764725 17.745300 L 668.825425 16.678800 L 668.865925 15.590100 L 668.886125 14.479100 L 668.888725 13.915200 L 668.886125 13.351400 L 668.865925 12.240400 L 668.825425 11.151700 L 668.764725 10.085200 L 668.726825 9.560300 L 668.677525 9.045800 L 668.525725 8.062300 L 668.303125 7.139500 L 668.009625 6.277500 L 667.836425 5.869200 L 667.742525 5.671400 L 667.537625 5.290900 L 667.309925 4.930700 L 667.059525 4.590700 L 666.786325 4.271000 L 666.490325 3.971500 L 666.171625 3.692200 L 665.830125 3.433200 L 665.650825 3.311300 L 665.464125 3.195600 L 665.063525 2.986700 L 664.626325 2.807600 L 664.152825 2.658300 L 663.642825 2.538900 L 663.096525 2.449400 L 662.513625 2.389700 L 661.894425 2.359800 L 661.571125 2.356100 Z M 476.936825 5.988100 L 477.242325 6.032600 L 477.513525 6.121600 L 477.750325 6.255200 L 477.855825 6.338700 L 477.953925 6.436300 L 478.132025 6.683200 L 478.285825 6.998900 L 478.415325 7.383400 L 478.471025 7.601400 L 478.521325 7.838000 L 478.608325 8.370200 L 478.677125 8.981300 L 478.727725 9.671400 L 478.746225 10.046000 L 478.774525 10.864600 L 478.806925 12.799200 L 478.810925 13.915200 L 478.806925 15.031300 L 478.774525 16.965900 L 478.746225 17.784500 L 478.727725 18.159100 L 478.677125 18.849200 L 478.608325 19.460300 L 478.521325 19.992500 L 478.471025 20.229100 L 478.415325 20.447100 L 478.285825 20.831600 L 478.132025 21.147300 L 477.953925 21.394200 L 477.855825 21.491800 L 477.750325 21.575300 L 477.513525 21.708900 L 477.242325 21.797900 L 476.936825 21.842400 L 476.771125 21.848000 L 476.605425 21.842400 L 476.299825 21.797900 L 476.028725 21.708900 L 475.791925 21.575300 L 475.686425 21.491800 L 475.588325 21.394200 L 475.410225 21.147300 L 475.256425 20.831600 L 475.126925 20.447100 L 475.071225 20.229100 L 475.020925 19.992500 L 474.933925 19.460300 L 474.865025 18.849200 L 474.814525 18.159100 L 474.796025 17.784500 L 474.767725 16.965900 L 474.735325 15.031300 L 474.731225 13.915200 L 474.735325 12.799200 L 474.767725 10.864600 L 474.796025 10.046000 L 474.814525 9.671400 L 474.865025 8.981300 L 474.933925 8.370200 L 475.020925 7.838000 L 475.071225 7.601400 L 475.126925 7.383400 L 475.256425 6.998900 L 475.410225 6.683200 L 475.588325 6.436300 L 475.686425 6.338700 L 475.791925 6.255200 L 476.028725 6.121600 L 476.299825 6.032600 L 476.605425 5.988100 L 476.771125 5.982500 Z M 583.283825 5.988100 L 583.589425 6.032600 L 583.860525 6.121600 L 584.097325 6.255200 L 584.202825 6.338700 L 584.300925 6.436300 L 584.479025 6.683200 L 584.632825 6.998900 L 584.762325 7.383400 L 584.818025 7.601400 L 584.868325 7.838000 L 584.955325 8.370200 L 585.024125 8.981300 L 585.074725 9.671400 L 585.093225 10.046000 L 585.121525 10.864600 L 585.153925 12.799200 L 585.158025 13.915200 L 585.153925 15.031300 L 585.121525 16.965900 L 585.093225 17.784500 L 585.074725 18.159100 L 585.024125 18.849200 L 584.955325 19.460300 L 584.868325 19.992500 L 584.818025 20.229100 L 584.762325 20.447100 L 584.632825 20.831600 L 584.479025 21.147300 L 584.300925 21.394200 L 584.202825 21.491800 L 584.097325 21.575300 L 583.860525 21.708900 L 583.589425 21.797900 L 583.283825 21.842400 L 583.118125 21.848000 L 582.952425 21.842400 L 582.646925 21.797900 L 582.375725 21.708900 L 582.138925 21.575300 L 582.033425 21.491800 L 581.935325 21.394200 L 581.757225 21.147300 L 581.603425 20.831600 L 581.473925 20.447100 L 581.418225 20.229100 L 581.367925 19.992500 L 581.280925 19.460300 L 581.212125 18.849200 L 581.161525 18.159100 L 581.143025 17.784500 L 581.114725 16.965900 L 581.082325 15.031300 L 581.078325 13.915200 L 581.082325 12.799200 L 581.114725 10.864600 L 581.143025 10.046000 L 581.161525 9.671400 L 581.212125 8.981300 L 581.280925 8.370200 L 581.367925 7.838000 L 581.418225 7.601400 L 581.473925 7.383400 L 581.603425 6.998900 L 581.757225 6.683200 L 581.935325 6.436300 L 582.033425 6.338700 L 582.138925 6.255200 L 582.375725 6.121600 L 582.646925 6.032600 L 582.952425 5.988100 L 583.118125 5.982500 Z M 621.927525 5.988100 L 622.233125 6.032600 L 622.504225 6.121600 L 622.741025 6.255200 L 622.846525 6.338700 L 622.944625 6.436300 L 623.122725 6.683200 L 623.276525 6.998900 L 623.406025 7.383400 L 623.461725 7.601400 L 623.512025 7.838000 L 623.599025 8.370200 L 623.667825 8.981300 L 623.718425 9.671400 L 623.736925 10.046000 L 623.765225 10.864600 L 623.797625 12.799200 L 623.801725 13.915200 L 623.797625 15.031300 L 623.765225 16.965900 L 623.736925 17.784500 L 623.718425 18.159100 L 623.667825 18.849200 L 623.599025 19.460300 L 623.512025 19.992500 L 623.461725 20.229100 L 623.406025 20.447100 L 623.276525 20.831600 L 623.122725 21.147300 L 622.944625 21.394200 L 622.846525 21.491800 L 622.741025 21.575300 L 622.504225 21.708900 L 622.233125 21.797900 L 621.927525 21.842400 L 621.761825 21.848000 L 621.596125 21.842400 L 621.290525 21.797900 L 621.019425 21.708900 L 620.782625 21.575300 L 620.677125 21.491800 L 620.579025 21.394200 L 620.400925 21.147300 L 620.247125 20.831600 L 620.117625 20.447100 L 620.061925 20.229100 L 620.011625 19.992500 L 619.924625 19.460300 L 619.855825 18.849200 L 619.805225 18.159100 L 619.786725 17.784500 L 619.758425 16.965900 L 619.726025 15.031300 L 619.722025 13.915200 L 619.726025 12.799200 L 619.758425 10.864600 L 619.786725 10.046000 L 619.805225 9.671400 L 619.855825 8.981300 L 619.924625 8.370200 L 620.011625 7.838000 L 620.061925 7.601400 L 620.117625 7.383400 L 620.247125 6.998900 L 620.400925 6.683200 L 620.579025 6.436300 L 620.677125 6.338700 L 620.782625 6.255200 L 621.019425 6.121600 L 621.290525 6.032600 L 621.596125 5.988100 L 621.761825 5.982500 Z M 660.262325 6.698600 L 660.654925 6.729000 L 661.003025 6.789700 L 661.306525 6.880800 L 661.441625 6.937700 L 661.567325 7.006700 L 661.796025 7.194900 L 661.994325 7.449900 L 662.162325 7.771700 L 662.234925 7.957600 L 662.300725 8.162000 L 662.414025 8.631500 L 662.503025 9.181900 L 662.567825 9.813300 L 662.591125 10.159300 L 662.626525 10.928300 L 662.666925 12.806300 L 662.672025 13.915200 L 662.666925 15.024200 L 662.626525 16.902200 L 662.591125 17.671200 L 662.567825 18.017200 L 662.503025 18.648600 L 662.414025 19.199000 L 662.300725 19.668500 L 662.234925 19.872900 L 662.162325 20.058800 L 661.994325 20.380600 L 661.796025 20.635600 L 661.567325 20.823800 L 661.441625 20.892800 L 661.306525 20.949700 L 661.003025 21.040800 L 660.654925 21.101500 L 660.262325 21.131900 L 660.049325 21.135700 L 658.851325 21.135700 L 658.851325 6.694800 L 660.049325 6.694800 Z M 260.612525 20.747100 L 260.547825 20.747100 L 258.896525 10.936400 L 262.263825 10.936400 Z" transform="scale(1.000000,1.000000) translate(259.859375,161.000000)" fill="url(#15526688-1041466224)" opacity="1.000000"></path>
        <path d="M 52.796875 33.812500 L 38.910156 66.859375 L 25.199219 33.812500 Z M 1.000000 2.992188 L 1.000000 5.160156 Q 5.628906 5.687500 7.943359 8.675781 Q 10.257812 11.664062 15.882812 24.906250 L 40.902344 83.792969 L 43.246094 83.792969 L 73.128906 15.765625 Q 76.117188 8.968750 77.904297 7.357422 Q 79.691406 5.746094 83.910156 5.160156 L 83.910156 2.992188 L 53.382812 2.992188 L 53.382812 5.160156 Q 58.656250 5.628906 60.179688 6.302734 Q 61.703125 6.976562 61.703125 9.613281 Q 61.703125 10.492188 61.117188 12.718750 Q 60.531250 14.945312 59.476562 17.406250 L 54.496094 28.949219 L 23.089844 28.949219 Q 18.402344 17.171875 17.494141 14.564453 Q 16.585938 11.957031 16.585938 10.433594 Q 16.585938 7.386719 19.046875 6.214844 Q 20.570312 5.511719 24.789062 5.160156 L 24.789062 2.992188 Z M 119.769531 82.386719 L 119.769531 80.160156 Q 115.257812 80.101562 113.617188 79.574219 Q 110.746094 78.636719 110.746094 75.765625 Q 110.746094 74.300781 111.771484 71.664062 Q 112.796875 69.027344 115.609375 62.816406 L 134.359375 21.039062 L 151.410156 66.273438 Q 152.523438 69.261719 153.109375 71.312500 Q 153.695312 73.363281 153.695312 74.652344 Q 153.695312 78.109375 150.707031 79.339844 Q 148.949219 80.042969 144.906250 80.160156 L 144.906250 82.386719 L 169.457031 82.386719 L 169.457031 80.335938 Q 165.648438 79.808594 163.832031 78.285156 Q 161.078125 76.000000 158.382812 69.085938 L 131.839844 1.585938 L 130.023438 1.585938 L 100.433594 67.562500 Q 96.683594 75.941406 94.427734 77.992188 Q 92.171875 80.042969 87.835938 80.335938 L 87.835938 82.386719 Z M 189.730469 42.660156 Q 189.730469 23.734375 197.171875 14.681641 Q 204.613281 5.628906 215.453125 5.628906 Q 226.058594 5.628906 233.587891 14.447266 Q 241.117188 23.265625 241.117188 42.660156 Q 241.117188 62.289062 233.500000 71.019531 Q 225.882812 79.750000 215.453125 79.750000 Q 204.671875 79.750000 197.201172 70.697266 Q 189.730469 61.644531 189.730469 42.660156 Z M 176.136719 42.660156 Q 176.136719 61.878906 188.207031 73.480469 Q 199.281250 84.085938 215.453125 84.085938 Q 231.683594 84.085938 242.757812 73.421875 Q 254.769531 61.878906 254.769531 42.660156 Q 254.769531 23.148438 242.347656 11.605469 Q 231.214844 1.292969 215.453125 1.292969 Q 198.578125 1.292969 187.445312 12.718750 Q 176.136719 24.378906 176.136719 42.660156 Z M 283.070312 44.066406 Q 296.019531 44.535156 301.585938 46.761719 Q 311.136719 50.687500 311.136719 61.527344 Q 311.136719 71.957031 302.582031 75.765625 Q 298.011719 77.816406 290.453125 77.816406 Q 285.355469 77.816406 284.212891 77.083984 Q 283.070312 76.351562 283.070312 73.656250 Z M 260.570312 5.160156 Q 267.484375 5.804688 269.183594 7.855469 Q 270.882812 9.906250 270.882812 17.406250 L 270.882812 69.378906 Q 270.882812 75.707031 268.978516 77.669922 Q 267.074219 79.632812 260.570312 80.160156 L 260.570312 82.386719 L 293.792969 82.386719 Q 304.164062 82.386719 311.078125 79.750000 Q 324.203125 74.769531 324.203125 61.410156 Q 324.203125 52.445312 318.373047 47.640625 Q 312.542969 42.835938 302.523438 41.312500 L 327.250000 10.902344 Q 329.535156 8.089844 331.820312 6.800781 Q 334.105469 5.511719 337.679688 5.160156 L 337.679688 2.992188 L 318.343750 2.992188 L 289.750000 39.906250 L 283.070312 39.613281 L 283.070312 16.000000 Q 283.070312 9.320312 285.091797 7.533203 Q 287.113281 5.746094 293.910156 5.160156 L 293.910156 2.992188 L 260.570312 2.992188 Z M 375.472656 82.386719 L 375.472656 80.160156 Q 371.253906 80.277344 369.144531 79.515625 Q 367.035156 78.753906 367.035156 76.234375 Q 367.035156 75.472656 367.386719 74.330078 Q 367.738281 73.187500 368.968750 71.312500 L 386.722656 44.652344 L 403.949219 71.722656 Q 405.003906 73.421875 405.326172 74.535156 Q 405.648438 75.648438 405.648438 76.175781 Q 405.648438 78.753906 402.894531 79.574219 Q 401.253906 80.101562 397.269531 80.160156 L 397.269531 82.386719 L 423.519531 82.386719 L 423.519531 80.160156 Q 419.886719 79.984375 417.015625 77.992188 Q 412.562500 74.886719 406.996094 66.449219 L 389.242188 39.378906 L 389.242188 16.000000 Q 389.242188 9.027344 391.498047 7.298828 Q 393.753906 5.570312 401.605469 5.160156 L 401.605469 2.992188 L 364.925781 2.992188 L 364.925781 5.160156 Q 373.070312 5.628906 375.033203 7.591797 Q 376.996094 9.554688 376.996094 17.406250 L 376.996094 38.265625 L 361.292969 61.292969 Q 353.148438 73.187500 349.867188 76.556641 Q 346.585938 79.925781 341.898438 80.160156 L 341.898438 82.386719 Z M 497.757812 44.066406 Q 510.707031 44.535156 516.273438 46.761719 Q 525.824219 50.687500 525.824219 61.527344 Q 525.824219 71.957031 517.269531 75.765625 Q 512.699219 77.816406 505.140625 77.816406 Q 500.042969 77.816406 498.900391 77.083984 Q 497.757812 76.351562 497.757812 73.656250 Z M 475.257812 5.160156 Q 482.171875 5.804688 483.871094 7.855469 Q 485.570312 9.906250 485.570312 17.406250 L 485.570312 69.378906 Q 485.570312 75.707031 483.666016 77.669922 Q 481.761719 79.632812 475.257812 80.160156 L 475.257812 82.386719 L 508.480469 82.386719 Q 518.851562 82.386719 525.765625 79.750000 Q 538.890625 74.769531 538.890625 61.410156 Q 538.890625 52.445312 533.060547 47.640625 Q 527.230469 42.835938 517.210938 41.312500 L 541.937500 10.902344 Q 544.222656 8.089844 546.507812 6.800781 Q 548.792969 5.511719 552.367188 5.160156 L 552.367188 2.992188 L 533.031250 2.992188 L 504.437500 39.906250 L 497.757812 39.613281 L 497.757812 16.000000 Q 497.757812 9.320312 499.779297 7.533203 Q 501.800781 5.746094 508.597656 5.160156 L 508.597656 2.992188 L 475.257812 2.992188 Z M 555.296875 5.160156 Q 561.917969 5.863281 563.880859 7.533203 Q 565.843750 9.203125 565.843750 16.000000 L 565.843750 69.378906 Q 565.843750 75.765625 563.910156 77.728516 Q 561.976562 79.691406 555.296875 80.160156 L 555.296875 82.386719 L 619.046875 82.386719 L 619.457031 65.160156 L 616.410156 65.160156 Q 614.886719 73.128906 611.839844 75.472656 Q 608.792969 77.816406 598.246094 77.816406 L 581.957031 77.816406 Q 579.320312 77.816406 578.705078 76.966797 Q 578.089844 76.117188 578.089844 73.773438 L 578.089844 46.996094 L 596.546875 46.996094 Q 604.222656 46.996094 606.332031 49.281250 Q 608.441406 51.566406 609.730469 58.539062 L 612.542969 58.539062 L 612.542969 30.765625 L 609.730469 30.765625 Q 608.382812 37.738281 606.273438 39.994141 Q 604.164062 42.250000 596.546875 42.250000 L 578.089844 42.250000 L 578.089844 12.542969 Q 578.089844 8.968750 580.345703 8.324219 Q 582.601562 7.679688 593.851562 7.679688 Q 606.039062 7.679688 611.839844 10.345703 Q 617.640625 13.011719 622.269531 23.265625 L 625.609375 23.265625 L 620.160156 2.992188 L 555.296875 2.992188 Z M 671.664062 83.792969 Q 678.167969 83.792969 685.023438 81.859375 Q 691.878906 79.925781 692.699219 79.925781 Q 694.398438 79.925781 695.921875 80.863281 Q 697.445312 81.800781 698.031250 83.792969 L 700.550781 83.792969 L 701.664062 56.839844 L 698.910156 56.839844 Q 696.507812 64.867188 692.640625 69.789062 Q 685.257812 79.046875 672.777344 79.046875 Q 660.179688 79.046875 652.181641 69.085938 Q 644.183594 59.125000 644.183594 41.664062 Q 644.183594 25.609375 652.591797 16.029297 Q 661.000000 6.449219 673.890625 6.449219 Q 683.207031 6.449219 691.058594 10.902344 Q 695.570312 13.421875 700.960938 18.519531 L 703.187500 16.292969 Q 699.203125 11.253906 693.285156 7.445312 Q 683.207031 1.000000 671.429688 1.000000 Q 652.093750 1.000000 640.726562 13.363281 Q 630.238281 24.789062 630.238281 41.898438 Q 630.238281 59.417969 641.312500 71.312500 Q 652.972656 83.792969 671.664062 83.792969 Z M 709.222656 5.160156 Q 716.546875 5.687500 718.714844 7.357422 Q 720.882812 9.027344 720.882812 16.000000 L 720.882812 69.378906 Q 720.882812 76.000000 718.714844 77.904297 Q 716.546875 79.808594 709.222656 80.160156 L 709.222656 82.386719 L 744.730469 82.386719 L 744.730469 80.160156 Q 737.406250 79.808594 735.238281 77.904297 Q 733.070312 76.000000 733.070312 69.378906 L 733.070312 16.000000 Q 733.070312 9.027344 735.238281 7.357422 Q 737.406250 5.687500 744.730469 5.160156 L 744.730469 2.992188 L 709.222656 2.992188 Z M 799.164062 60.589844 Q 799.164062 71.605469 789.671875 75.707031 Q 784.574219 77.933594 776.781250 77.933594 Q 773.089844 77.933594 772.240234 77.201172 Q 771.390625 76.468750 771.390625 73.949219 L 771.390625 42.660156 Q 774.613281 42.367188 775.609375 42.308594 Q 776.605469 42.250000 777.542969 42.250000 Q 785.804688 42.250000 790.550781 44.593750 Q 799.164062 48.871094 799.164062 60.589844 Z M 749.183594 5.160156 Q 756.039062 5.804688 757.738281 7.884766 Q 759.437500 9.964844 759.437500 17.406250 L 759.437500 69.378906 Q 759.437500 75.648438 757.533203 77.640625 Q 755.628906 79.632812 749.183594 80.160156 L 749.183594 82.386719 L 780.824219 82.386719 Q 796.058594 82.386719 804.144531 76.468750 Q 812.230469 70.550781 812.230469 60.882812 Q 812.230469 48.636719 803.265625 43.128906 Q 794.300781 37.621094 780.824219 37.621094 Q 778.890625 37.621094 775.873047 37.708984 Q 772.855469 37.796875 771.390625 37.796875 L 771.390625 16.000000 Q 771.390625 9.203125 773.470703 7.445312 Q 775.550781 5.687500 782.757812 5.160156 L 782.757812 2.992188 L 749.183594 2.992188 Z M 815.335938 5.160156 Q 821.957031 5.863281 823.919922 7.533203 Q 825.882812 9.203125 825.882812 16.000000 L 825.882812 69.378906 Q 825.882812 75.765625 823.949219 77.728516 Q 822.015625 79.691406 815.335938 80.160156 L 815.335938 82.386719 L 879.085938 82.386719 L 879.496094 65.160156 L 876.449219 65.160156 Q 874.925781 73.128906 871.878906 75.472656 Q 868.832031 77.816406 858.285156 77.816406 L 841.996094 77.816406 Q 839.359375 77.816406 838.744141 76.966797 Q 838.128906 76.117188 838.128906 73.773438 L 838.128906 46.996094 L 856.585938 46.996094 Q 864.261719 46.996094 866.371094 49.281250 Q 868.480469 51.566406 869.769531 58.539062 L 872.582031 58.539062 L 872.582031 30.765625 L 869.769531 30.765625 Q 868.421875 37.738281 866.312500 39.994141 Q 864.203125 42.250000 856.585938 42.250000 L 838.128906 42.250000 L 838.128906 12.542969 Q 838.128906 8.968750 840.384766 8.324219 Q 842.640625 7.679688 853.890625 7.679688 Q 866.078125 7.679688 871.878906 10.345703 Q 877.679688 13.011719 882.308594 23.265625 L 885.648438 23.265625 L 880.199219 2.992188 L 815.335938 2.992188 Z" transform="scale(1.000000,1.000000) translate(259.859375,199.554688)" fill="url(#15517968-963023904)" opacity="1.000000"></path>
        <path d="M 5.130859 39.583984 Q 9.701172 27.455078 15.853516 20.248047 Q 26.576172 7.679688 42.484375 7.679688 Q 51.097656 7.679688 57.381836 13.128906 Q 63.666016 18.578125 63.666016 28.333984 Q 63.666016 37.123047 57.337891 43.626953 Q 53.207031 47.757812 39.935547 56.019531 L 24.554688 65.599609 Q 17.611328 69.994141 13.480469 74.476562 Q 5.833984 83.001953 5.833984 93.285156 Q 5.833984 106.908203 14.886719 115.960938 Q 23.939453 125.013672 38.880859 125.013672 Q 45.033203 125.013672 53.690430 121.981445 Q 62.347656 118.949219 63.578125 118.949219 Q 66.917969 118.949219 68.192383 120.531250 Q 69.466797 122.113281 70.169922 125.013672 L 73.861328 125.013672 L 77.816406 86.693359 L 73.509766 86.693359 Q 69.115234 104.007812 59.403320 110.863281 Q 49.691406 117.718750 40.199219 117.718750 Q 32.816406 117.718750 27.323242 113.368164 Q 21.830078 109.017578 21.830078 101.283203 Q 21.830078 94.339844 26.048828 89.417969 Q 30.267578 84.408203 39.144531 78.958984 L 54.964844 69.203125 Q 69.818359 60.062500 75.882812 52.416016 Q 81.859375 44.681641 81.859375 34.134766 Q 81.859375 19.984375 71.180664 10.492188 Q 60.501953 1.000000 43.890625 1.000000 Q 35.541016 1.000000 26.444336 4.164062 Q 17.347656 7.328125 16.029297 7.328125 Q 12.865234 7.328125 11.766602 5.394531 Q 10.667969 3.460938 10.316406 1.263672 L 6.361328 1.263672 L 1.000000 39.583984 Z" transform="scale(1.000000,1.000000) translate(1162.507812,161.000000)" fill="url(#15487360-963609936)" opacity="1.000000"></path>
        <path d="M 5.130859 39.583984 Q 9.701172 27.455078 15.853516 20.248047 Q 26.576172 7.679688 42.484375 7.679688 Q 51.097656 7.679688 57.381836 13.128906 Q 63.666016 18.578125 63.666016 28.333984 Q 63.666016 37.123047 57.337891 43.626953 Q 53.207031 47.757812 39.935547 56.019531 L 24.554688 65.599609 Q 17.611328 69.994141 13.480469 74.476562 Q 5.833984 83.001953 5.833984 93.285156 Q 5.833984 106.908203 14.886719 115.960938 Q 23.939453 125.013672 38.880859 125.013672 Q 45.033203 125.013672 53.690430 121.981445 Q 62.347656 118.949219 63.578125 118.949219 Q 66.917969 118.949219 68.192383 120.531250 Q 69.466797 122.113281 70.169922 125.013672 L 73.861328 125.013672 L 77.816406 86.693359 L 73.509766 86.693359 Q 69.115234 104.007812 59.403320 110.863281 Q 49.691406 117.718750 40.199219 117.718750 Q 32.816406 117.718750 27.323242 113.368164 Q 21.830078 109.017578 21.830078 101.283203 Q 21.830078 94.339844 26.048828 89.417969 Q 30.267578 84.408203 39.144531 78.958984 L 54.964844 69.203125 Q 69.818359 60.062500 75.882812 52.416016 Q 81.859375 44.681641 81.859375 34.134766 Q 81.859375 19.984375 71.180664 10.492188 Q 60.501953 1.000000 43.890625 1.000000 Q 35.541016 1.000000 26.444336 4.164062 Q 17.347656 7.328125 16.029297 7.328125 Q 12.865234 7.328125 11.766602 5.394531 Q 10.667969 3.460938 10.316406 1.263672 L 6.361328 1.263672 L 1.000000 39.583984 Z" transform="scale(1.000000,1.000000) translate(161.000000,161.000000)" fill="url(#15487680-963081888)" opacity="1.000000"></path>
    </g>
</svg>